<?xml version="1.0" encoding="UTF-8" standalone="no"?>
<!-- Created with Inkscape (http://www.inkscape.org/) -->

<svg
   xmlns:dc="http://purl.org/dc/elements/1.1/"
   xmlns:cc="http://creativecommons.org/ns#"
   xmlns:rdf="http://www.w3.org/1999/02/22-rdf-syntax-ns#"
   xmlns:svg="http://www.w3.org/2000/svg"
   xmlns="http://www.w3.org/2000/svg"
   xmlns:sodipodi="http://sodipodi.sourceforge.net/DTD/sodipodi-0.dtd"
   xmlns:inkscape="http://www.inkscape.org/namespaces/inkscape"
   width="128.47375mm"
   height="84.905899mm"
   viewBox="0 0 128.47375 84.905899"
   version="1.1"
   id="svg8"
   inkscape:version="0.92.3 (2405546, 2018-03-11)"
   sodipodi:docname="expression-categories-cpp-17.svg">
  <defs
     id="defs2">
    <clipPath
       id="clipEmfPath1"
       clipPathUnits="userSpaceOnUse">
      <path
         id="path4518"
         d="M 3.8398006,3.9997923 H 791.63888 V 545.25168 H 3.8398006 Z"
         inkscape:connector-curvature="0" />
    </clipPath>
    <pattern
       y="0"
       x="0"
       height="6"
       width="6"
       patternUnits="userSpaceOnUse"
       id="EMFhbasepattern" />
  </defs>
  <sodipodi:namedview
     id="base"
     pagecolor="#ffffff"
     bordercolor="#666666"
     borderopacity="1.0"
     inkscape:pageopacity="0.0"
     inkscape:pageshadow="2"
     inkscape:zoom="1.7354355"
     inkscape:cx="257.43543"
     inkscape:cy="-192.45032"
     inkscape:document-units="mm"
     inkscape:current-layer="layer1"
     showgrid="false"
     fit-margin-top="0"
     fit-margin-left="0"
     fit-margin-right="0"
     fit-margin-bottom="0"
     inkscape:window-width="4608"
     inkscape:window-height="2473"
     inkscape:window-x="6898"
     inkscape:window-y="-14"
     inkscape:window-maximized="1" />
  <metadata
     id="metadata5">
    <rdf:RDF>
      <cc:Work
         rdf:about="">
        <dc:format>image/svg+xml</dc:format>
        <dc:type
           rdf:resource="http://purl.org/dc/dcmitype/StillImage" />
        <dc:title></dc:title>
      </cc:Work>
    </rdf:RDF>
  </metadata>
  <g
     inkscape:label="Layer 1"
     inkscape:groupmode="layer"
     id="layer1"
     transform="translate(-38.62896,-17.267559)">
    <g
       id="g4795">
      <path
         id="path4524"
         d="M 79.641232,17.372115 V 30.128004 H 126.09044 V 17.372115 Z"
         style="fill:#ffffff;fill-opacity:1;fill-rule:evenodd;stroke:none;stroke-width:0.16337796"
         inkscape:connector-curvature="0" />
      <path
         transform="matrix(0.16337796,0,0,0.16337796,37.910134,16.548733)"
         id="path4526"
         d="M 255.42673,5.0397382 H 539.73197 V 83.115683 H 255.42673 Z"
         clip-path="url(#clipEmfPath1)"
         style="fill:none;stroke:#4472c4;stroke-width:1.27993357px;stroke-linecap:butt;stroke-linejoin:miter;stroke-miterlimit:8;stroke-dasharray:none;stroke-opacity:1"
         inkscape:connector-curvature="0" />
      <g
         aria-label="expression"
         style="font-style:normal;font-variant:normal;font-weight:400;font-size:5.22809458px;line-height:125%;font-family:'Fira Sans Medium';text-align:start;letter-spacing:0px;word-spacing:0px;text-anchor:start;fill:#000000;fill-opacity:1;stroke:none;stroke-width:0.16337796"
         id="text4532">
        <path
           d="m 92.510866,24.068976 c 0,-0.873091 -0.444388,-1.395901 -1.218146,-1.395901 -0.784214,0 -1.228602,0.637828 -1.228602,1.479551 0,0.873092 0.460072,1.442954 1.31748,1.442954 0.418247,0 0.752845,-0.151615 1.024706,-0.371195 l -0.277089,-0.381651 c -0.240492,0.167299 -0.444388,0.245721 -0.690108,0.245721 -0.365967,0 -0.6326,-0.182984 -0.679653,-0.747618 h 1.735728 c 0.0052,-0.07319 0.01568,-0.182983 0.01568,-0.271861 z m -0.663968,-0.162071 h -1.087444 c 0.0366,-0.54895 0.235265,-0.758073 0.54895,-0.758073 0.376423,0 0.538494,0.271861 0.538494,0.726705 z"
           style="font-style:normal;font-variant:normal;font-weight:400;font-size:5.22809458px;font-family:'Fira Sans Medium';fill:#404040;stroke-width:0.16337796"
           id="path4797" />
        <path
           d="m 94.351727,24.037608 0.799898,-1.286112 H 94.42492 l -0.4653,0.941058 -0.470529,-0.941058 H 92.72579 l 0.826039,1.307024 -0.920145,1.458639 h 0.737161 l 0.564634,-1.0979 0.569863,1.0979 H 95.2771 Z"
           style="font-style:normal;font-variant:normal;font-weight:400;font-size:5.22809458px;font-family:'Fira Sans Medium';fill:#404040;stroke-width:0.16337796"
           id="path4799" />
        <path
           d="m 97.096477,22.673075 c -0.298002,0 -0.590775,0.130702 -0.810355,0.418248 l -0.0366,-0.339827 h -0.585546 v 3.905387 l 0.669196,-0.07319 v -1.29134 c 0.172527,0.203896 0.413019,0.30323 0.695336,0.30323 0.700565,0 1.092672,-0.622143 1.092672,-1.469095 0,-0.883548 -0.303229,-1.45341 -1.024706,-1.45341 z M 96.8403,25.083227 c -0.209124,0 -0.376423,-0.09411 -0.507125,-0.287546 v -1.244286 c 0.130702,-0.214352 0.32937,-0.376423 0.564634,-0.376423 0.334598,0 0.52281,0.256177 0.52281,0.956741 0,0.669197 -0.214352,0.951514 -0.580319,0.951514 z"
           style="font-style:normal;font-variant:normal;font-weight:400;font-size:5.22809458px;font-family:'Fira Sans Medium';fill:#404040;stroke-width:0.16337796"
           id="path4801" />
        <path
           d="m 100.1429,22.678303 c -0.324138,0 -0.590771,0.21958 -0.721473,0.616915 l -0.06274,-0.543722 h -0.580319 v 2.765663 h 0.669196 v -1.474323 c 0.104562,-0.465301 0.277089,-0.711021 0.611683,-0.711021 0.0941,0 0.16208,0.01046 0.24572,0.03137 l 0.11502,-0.648284 c -0.0889,-0.02614 -0.17775,-0.0366 -0.27709,-0.0366 z"
           style="font-style:normal;font-variant:normal;font-weight:400;font-size:5.22809458px;font-family:'Fira Sans Medium';fill:#404040;stroke-width:0.16337796"
           id="path4803" />
        <path
           d="m 102.95684,24.068976 c 0,-0.873091 -0.44438,-1.395901 -1.21814,-1.395901 -0.78422,0 -1.2286,0.637828 -1.2286,1.479551 0,0.873092 0.46007,1.442954 1.31748,1.442954 0.41824,0 0.75284,-0.151615 1.0247,-0.371195 l -0.27709,-0.381651 c -0.24049,0.167299 -0.44438,0.245721 -0.69011,0.245721 -0.36596,0 -0.63259,-0.182984 -0.67965,-0.747618 h 1.73573 c 0.005,-0.07319 0.0157,-0.182983 0.0157,-0.271861 z m -0.66396,-0.162071 h -1.08745 c 0.0366,-0.54895 0.23527,-0.758073 0.54895,-0.758073 0.37643,0 0.5385,0.271861 0.5385,0.726705 z"
           style="font-style:normal;font-variant:normal;font-weight:400;font-size:5.22809458px;font-family:'Fira Sans Medium';fill:#404040;stroke-width:0.16337796"
           id="path4805" />
        <path
           d="m 104.43027,22.673075 c -0.64306,0 -1.06653,0.345054 -1.06653,0.805127 0,0.407791 0.25095,0.679652 0.82081,0.836495 0.51758,0.146386 0.62737,0.21958 0.62737,0.449616 0,0.209124 -0.19344,0.334598 -0.49144,0.334598 -0.28232,0 -0.5385,-0.10979 -0.75285,-0.271861 l -0.3346,0.376423 c 0.25618,0.230036 0.62738,0.392107 1.10313,0.392107 0.6326,0 1.16587,-0.30323 1.16587,-0.87832 0,-0.491441 -0.31892,-0.721477 -0.88355,-0.873092 -0.47053,-0.130702 -0.58032,-0.214352 -0.58032,-0.397335 0,-0.167299 0.15162,-0.277089 0.41825,-0.277089 0.24572,0 0.4653,0.07842 0.69534,0.224808 l 0.2614,-0.392107 c -0.2614,-0.203896 -0.58555,-0.32937 -0.98288,-0.32937 z"
           style="font-style:normal;font-variant:normal;font-weight:400;font-size:5.22809458px;font-family:'Fira Sans Medium';fill:#404040;stroke-width:0.16337796"
           id="path4807" />
        <path
           d="m 106.88094,22.673075 c -0.64306,0 -1.06653,0.345054 -1.06653,0.805127 0,0.407791 0.25094,0.679652 0.82081,0.836495 0.51758,0.146386 0.62737,0.21958 0.62737,0.449616 0,0.209124 -0.19344,0.334598 -0.49144,0.334598 -0.28232,0 -0.5385,-0.10979 -0.75285,-0.271861 l -0.3346,0.376423 c 0.25618,0.230036 0.62737,0.392107 1.10313,0.392107 0.6326,0 1.16587,-0.30323 1.16587,-0.87832 0,-0.491441 -0.31892,-0.721477 -0.88355,-0.873092 -0.47053,-0.130702 -0.58032,-0.214352 -0.58032,-0.397335 0,-0.167299 0.15161,-0.277089 0.41825,-0.277089 0.24572,0 0.4653,0.07842 0.69533,0.224808 l 0.26141,-0.392107 c -0.26141,-0.203896 -0.58555,-0.32937 -0.98288,-0.32937 z"
           style="font-style:normal;font-variant:normal;font-weight:400;font-size:5.22809458px;font-family:'Fira Sans Medium';fill:#404040;stroke-width:0.16337796"
           id="path4809" />
        <path
           d="m 108.82873,21.350367 c -0.24572,0 -0.41825,0.177755 -0.41825,0.407792 0,0.224808 0.17253,0.402563 0.41825,0.402563 0.25095,0 0.42347,-0.177755 0.42347,-0.402563 0,-0.230037 -0.17252,-0.407792 -0.42347,-0.407792 z m 0.33983,1.401129 h -0.6692 v 2.765663 h 0.6692 z"
           style="font-style:normal;font-variant:normal;font-weight:400;font-size:5.22809458px;font-family:'Fira Sans Medium';fill:#404040;stroke-width:0.16337796"
           id="path4811" />
        <path
           d="m 111.09903,22.673075 c -0.82081,0 -1.30702,0.590775 -1.30702,1.458638 0,0.909689 0.48621,1.463867 1.30179,1.463867 0.81558,0 1.3018,-0.590775 1.3018,-1.463867 0,-0.90446 -0.48099,-1.458638 -1.29657,-1.458638 z m 0,0.507125 c 0.38688,0 0.59077,0.292774 0.59077,0.951513 0,0.65874 -0.20389,0.956742 -0.596,0.956742 -0.39211,0 -0.596,-0.292774 -0.596,-0.956742 0,-0.653511 0.20912,-0.951513 0.60123,-0.951513 z"
           style="font-style:normal;font-variant:normal;font-weight:400;font-size:5.22809458px;font-family:'Fira Sans Medium';fill:#404040;stroke-width:0.16337796"
           id="path4813" />
        <path
           d="m 114.49721,22.673075 c -0.35028,0 -0.62737,0.162071 -0.84172,0.43916 l -0.0523,-0.360739 h -0.58031 v 2.765663 h 0.66919 V 23.59322 c 0.16207,-0.256177 0.33983,-0.418248 0.58032,-0.418248 0.20912,0 0.33983,0.09933 0.33983,0.444388 v 1.897799 h 0.66919 v -2.002361 c 0,-0.528037 -0.28754,-0.841723 -0.78421,-0.841723 z"
           style="font-style:normal;font-variant:normal;font-weight:400;font-size:5.22809458px;font-family:'Fira Sans Medium';fill:#404040;stroke-width:0.16337796"
           id="path4815" />
      </g>
      <path
         id="path4534"
         d="M 46.60139,40.609789 V 53.339538 H 93.076738 V 40.609789 Z"
         style="fill:#ffffff;fill-opacity:1;fill-rule:evenodd;stroke:none;stroke-width:0.16337796"
         inkscape:connector-curvature="0" />
      <path
         id="path4536"
         d="M 46.60139,40.609789 H 93.076738 V 53.339538 H 46.60139 Z"
         style="fill:none;stroke:#4472c4;stroke-width:0.20911294px;stroke-linecap:butt;stroke-linejoin:miter;stroke-miterlimit:8;stroke-dasharray:none;stroke-opacity:1"
         inkscape:connector-curvature="0" />
      <g
         aria-label="glvalue"
         style="font-style:normal;font-variant:normal;font-weight:400;font-size:5.22809458px;line-height:125%;font-family:'Fira Sans Medium';text-align:start;letter-spacing:0px;word-spacing:0px;text-anchor:start;fill:#000000;fill-opacity:1;stroke:none;stroke-width:0.16337796"
         id="text4542">
        <path
           d="m 63.8467,45.595292 c -0.334598,0.177755 -0.637827,0.324142 -1.291339,0.308458 -0.669196,0 -1.144953,0.392107 -1.144953,0.993338 0,0.35551 0.146387,0.601231 0.486213,0.778986 -0.203896,0.125474 -0.324142,0.318914 -0.324142,0.512353 0,0.287545 0.235264,0.533266 0.789442,0.533266 h 0.418248 c 0.308457,0 0.470528,0.125474 0.470528,0.32937 0,0.21958 -0.156842,0.365966 -0.695336,0.365966 -0.54895,0 -0.669196,-0.120246 -0.669196,-0.397335 h -0.601231 c 0,0.554178 0.277089,0.867864 1.259971,0.867864 0.90446,0 1.380217,-0.32937 1.380217,-0.883548 0,-0.454844 -0.397336,-0.784214 -1.009023,-0.784214 h -0.423475 c -0.277089,0 -0.334598,-0.09411 -0.334598,-0.19344 0,-0.08365 0.04705,-0.156843 0.115018,-0.203895 0.104562,0.03137 0.209124,0.04182 0.32937,0.04182 0.695336,0 1.113584,-0.392107 1.113584,-0.930601 0,-0.345054 -0.167299,-0.559406 -0.501897,-0.71102 0.32937,0 0.590774,-0.02091 0.799898,-0.09411 z m -1.280883,0.763302 c 0.334598,0 0.501897,0.172527 0.501897,0.522809 0,0.350283 -0.172527,0.54895 -0.491441,0.54895 -0.308457,0 -0.491441,-0.209123 -0.491441,-0.543721 0,-0.318914 0.177756,-0.528038 0.480985,-0.528038 z"
           style="font-style:normal;font-variant:normal;font-weight:400;font-size:5.22809458px;font-family:'Fira Sans Medium';fill:#404040;stroke-width:0.16337796"
           id="path4818" />
        <path
           d="m 65.070646,48.826255 c 0.172527,0 0.32937,-0.04183 0.444388,-0.09411 L 65.373876,48.26162 c -0.04705,0.01568 -0.09411,0.02614 -0.156843,0.02614 -0.10979,0 -0.156843,-0.06274 -0.156843,-0.19344 v -3.293699 l -0.669196,0.07319 v 3.241419 c 0,0.454844 0.256176,0.711021 0.679652,0.711021 z"
           style="font-style:normal;font-variant:normal;font-weight:400;font-size:5.22809458px;font-family:'Fira Sans Medium';fill:#404040;stroke-width:0.16337796"
           id="path4820" />
        <path
           d="M 68.129898,45.982171 H 67.43979 l -0.606459,2.227169 -0.590775,-2.227169 h -0.726705 l 0.914917,2.765662 h 0.799898 z"
           style="font-style:normal;font-variant:normal;font-weight:400;font-size:5.22809458px;font-family:'Fira Sans Medium';fill:#404040;stroke-width:0.16337796"
           id="path4822" />
        <path
           d="m 70.484501,48.0159 v -1.160637 c 0,-0.611687 -0.324141,-0.951513 -1.061303,-0.951513 -0.313686,0 -0.663968,0.06797 -1.003794,0.198667 l 0.156843,0.454845 c 0.277089,-0.09411 0.543722,-0.146387 0.731933,-0.146387 0.355511,0 0.517581,0.120246 0.517581,0.480985 v 0.156843 h -0.345054 c -0.805126,0 -1.259971,0.324141 -1.259971,0.925372 0,0.501897 0.339827,0.85218 0.894005,0.85218 0.32937,0 0.632599,-0.120247 0.826039,-0.41302 0.10979,0.266633 0.308457,0.376423 0.611687,0.402563 l 0.141158,-0.444388 c -0.13593,-0.05228 -0.209124,-0.130702 -0.209124,-0.35551 z m -1.192005,0.324142 c -0.256177,0 -0.392107,-0.151615 -0.392107,-0.418248 0,-0.324142 0.214352,-0.480984 0.648283,-0.480984 h 0.277089 v 0.559406 c -0.125474,0.21958 -0.298001,0.339826 -0.533265,0.339826 z"
           style="font-style:normal;font-variant:normal;font-weight:400;font-size:5.22809458px;font-family:'Fira Sans Medium';fill:#404040;stroke-width:0.16337796"
           id="path4824" />
        <path
           d="m 71.901887,48.826255 c 0.172527,0 0.32937,-0.04183 0.444388,-0.09411 L 72.205116,48.26162 c -0.04705,0.01568 -0.0941,0.02614 -0.156842,0.02614 -0.10979,0 -0.156843,-0.06274 -0.156843,-0.19344 v -3.293699 l -0.669196,0.07319 v 3.241419 c 0,0.454844 0.256176,0.711021 0.679652,0.711021 z"
           style="font-style:normal;font-variant:normal;font-weight:400;font-size:5.22809458px;font-family:'Fira Sans Medium';fill:#404040;stroke-width:0.16337796"
           id="path4826" />
        <path
           d="m 75.001739,45.982171 h -0.669196 v 1.944851 c -0.146387,0.240493 -0.334598,0.392107 -0.559406,0.392107 -0.230037,0 -0.339827,-0.109789 -0.339827,-0.433931 v -1.903027 h -0.669196 v 1.986676 c 0,0.533266 0.271861,0.857408 0.773758,0.857408 0.376423,0 0.643056,-0.151615 0.846952,-0.465301 l 0.0366,0.386879 h 0.580319 z"
           style="font-style:normal;font-variant:normal;font-weight:400;font-size:5.22809458px;font-family:'Fira Sans Medium';fill:#404040;stroke-width:0.16337796"
           id="path4828" />
        <path
           d="m 78.071528,47.299651 c 0,-0.873092 -0.444388,-1.395901 -1.218146,-1.395901 -0.784214,0 -1.228602,0.637827 -1.228602,1.479551 0,0.873091 0.460072,1.442954 1.31748,1.442954 0.418247,0 0.752845,-0.151615 1.024706,-0.371195 l -0.277089,-0.381651 c -0.240492,0.167299 -0.444388,0.24572 -0.690108,0.24572 -0.365967,0 -0.6326,-0.182983 -0.679652,-0.747617 h 1.735727 c 0.0052,-0.07319 0.01568,-0.182983 0.01568,-0.271861 z M 77.40756,47.13758 h -1.087443 c 0.0366,-0.54895 0.235264,-0.758074 0.54895,-0.758074 0.376422,0 0.538493,0.271861 0.538493,0.726706 z"
           style="font-style:normal;font-variant:normal;font-weight:400;font-size:5.22809458px;font-family:'Fira Sans Medium';fill:#404040;stroke-width:0.16337796"
           id="path4830" />
      </g>
      <path
         id="path4544"
         d="m 114.38012,40.609789 v 12.729749 h 46.47535 V 40.609789 Z"
         style="fill:#ffffff;fill-opacity:1;fill-rule:evenodd;stroke:none;stroke-width:0.16337796"
         inkscape:connector-curvature="0" />
      <path
         id="path4546"
         d="m 114.38012,40.609789 h 46.47535 v 12.729749 h -46.47535 z"
         style="fill:none;stroke:#4472c4;stroke-width:0.20911294px;stroke-linecap:butt;stroke-linejoin:miter;stroke-miterlimit:8;stroke-dasharray:none;stroke-opacity:1"
         inkscape:connector-curvature="0" />
      <g
         aria-label="rvalue"
         style="font-style:normal;font-variant:normal;font-weight:400;font-size:5.22809458px;line-height:125%;font-family:'Fira Sans Medium';text-align:start;letter-spacing:0px;word-spacing:0px;text-anchor:start;fill:#000000;fill-opacity:1;stroke:none;stroke-width:0.16337796"
         id="text4552">
        <path
           d="m 131.90134,45.908978 c -0.32414,0 -0.59077,0.21958 -0.72147,0.616915 l -0.0627,-0.543722 h -0.58032 v 2.765662 h 0.6692 v -1.474322 c 0.10456,-0.465301 0.27709,-0.711021 0.61168,-0.711021 0.0941,0 0.16207,0.01046 0.24572,0.03137 l 0.11502,-0.648283 c -0.0889,-0.02614 -0.17775,-0.0366 -0.27709,-0.0366 z"
           style="font-style:normal;font-variant:normal;font-weight:400;font-size:5.22809458px;font-family:'Fira Sans Medium';fill:#404040;stroke-width:0.16337796"
           id="path4833" />
        <path
           d="m 134.8214,45.982171 h -0.69011 l -0.60646,2.227169 -0.59078,-2.227169 h -0.7267 l 0.91492,2.765662 h 0.79989 z"
           style="font-style:normal;font-variant:normal;font-weight:400;font-size:5.22809458px;font-family:'Fira Sans Medium';fill:#404040;stroke-width:0.16337796"
           id="path4835" />
        <path
           d="m 137.176,48.0159 v -1.160637 c 0,-0.611687 -0.32414,-0.951513 -1.0613,-0.951513 -0.31369,0 -0.66397,0.06797 -1.0038,0.198667 l 0.15685,0.454845 c 0.27708,-0.09411 0.54372,-0.146387 0.73193,-0.146387 0.35551,0 0.51758,0.120246 0.51758,0.480985 v 0.156843 h -0.34505 c -0.80513,0 -1.25997,0.324141 -1.25997,0.925372 0,0.501897 0.33982,0.85218 0.894,0.85218 0.32937,0 0.6326,-0.120247 0.82604,-0.41302 0.10979,0.266633 0.30846,0.376423 0.61169,0.402563 l 0.14115,-0.444388 C 137.24919,48.319129 137.176,48.240708 137.176,48.0159 Z m -1.19201,0.324142 c -0.25617,0 -0.3921,-0.151615 -0.3921,-0.418248 0,-0.324142 0.21435,-0.480984 0.64828,-0.480984 h 0.27709 v 0.559406 c -0.12547,0.21958 -0.298,0.339826 -0.53327,0.339826 z"
           style="font-style:normal;font-variant:normal;font-weight:400;font-size:5.22809458px;font-family:'Fira Sans Medium';fill:#404040;stroke-width:0.16337796"
           id="path4837" />
        <path
           d="m 138.59339,48.826255 c 0.17252,0 0.32937,-0.04183 0.44438,-0.09411 l -0.14115,-0.470529 c -0.0471,0.01568 -0.0941,0.02614 -0.15685,0.02614 -0.10979,0 -0.15684,-0.06274 -0.15684,-0.19344 v -3.293699 l -0.6692,0.07319 v 3.241419 c 0,0.454844 0.25618,0.711021 0.67966,0.711021 z"
           style="font-style:normal;font-variant:normal;font-weight:400;font-size:5.22809458px;font-family:'Fira Sans Medium';fill:#404040;stroke-width:0.16337796"
           id="path4839" />
        <path
           d="m 141.69324,45.982171 h -0.6692 v 1.944851 c -0.14639,0.240493 -0.3346,0.392107 -0.55941,0.392107 -0.23003,0 -0.33982,-0.109789 -0.33982,-0.433931 v -1.903027 h -0.6692 v 1.986676 c 0,0.533266 0.27186,0.857408 0.77376,0.857408 0.37642,0 0.64306,-0.151615 0.84695,-0.465301 l 0.0366,0.386879 h 0.58032 z"
           style="font-style:normal;font-variant:normal;font-weight:400;font-size:5.22809458px;font-family:'Fira Sans Medium';fill:#404040;stroke-width:0.16337796"
           id="path4841" />
        <path
           d="m 144.76303,47.299651 c 0,-0.873092 -0.44439,-1.395901 -1.21815,-1.395901 -0.78421,0 -1.2286,0.637827 -1.2286,1.479551 0,0.873091 0.46007,1.442954 1.31748,1.442954 0.41825,0 0.75284,-0.151615 1.02471,-0.371195 l -0.27709,-0.381651 c -0.2405,0.167299 -0.44439,0.24572 -0.69011,0.24572 -0.36597,0 -0.6326,-0.182983 -0.67965,-0.747617 h 1.73572 c 0.005,-0.07319 0.0157,-0.182983 0.0157,-0.271861 z m -0.66397,-0.162071 h -1.08744 c 0.0366,-0.54895 0.23526,-0.758074 0.54895,-0.758074 0.37642,0 0.53849,0.271861 0.53849,0.726706 z"
           style="font-style:normal;font-variant:normal;font-weight:400;font-size:5.22809458px;font-family:'Fira Sans Medium';fill:#404040;stroke-width:0.16337796"
           id="path4843" />
      </g>
      <path
         id="path4554"
         d="M 38.733516,67.376244 V 80.105993 H 67.747934 V 67.376244 Z"
         style="fill:#ffffff;fill-opacity:1;fill-rule:evenodd;stroke:none;stroke-width:0.16337796"
         inkscape:connector-curvature="0" />
      <path
         transform="matrix(0.16337796,0,0,0.16337796,37.910134,16.548733)"
         id="path4556"
         d="M 5.0397382,311.10384 H 182.63051 v 77.91595 H 5.0397382 Z"
         clip-path="url(#clipEmfPath1)"
         style="fill:none;stroke:#4472c4;stroke-width:1.27993357px;stroke-linecap:butt;stroke-linejoin:miter;stroke-miterlimit:8;stroke-dasharray:none;stroke-opacity:1"
         inkscape:connector-curvature="0" />
      <g
         aria-label="lvalue"
         style="font-style:normal;font-variant:normal;font-weight:400;font-size:5.22809458px;line-height:125%;font-family:'Fira Sans Medium';text-align:start;letter-spacing:0px;word-spacing:0px;text-anchor:start;fill:#000000;fill-opacity:1;stroke:none;stroke-width:0.16337796"
         id="text4562">
        <path
           d="m 47.066417,75.591239 c 0.172527,0 0.32937,-0.04183 0.444388,-0.09411 l -0.141159,-0.470528 c -0.04705,0.01568 -0.09411,0.02614 -0.156843,0.02614 -0.10979,0 -0.156842,-0.06274 -0.156842,-0.193439 v -3.2937 l -0.669197,0.07319 v 3.241419 c 0,0.454844 0.256177,0.711021 0.679653,0.711021 z"
           style="font-style:normal;font-variant:normal;font-weight:400;font-size:5.22809458px;font-family:'Fira Sans Medium';fill:#404040;stroke-width:0.16337796"
           id="path4846" />
        <path
           d="m 50.125669,72.747155 h -0.690108 l -0.606459,2.227169 -0.590775,-2.227169 h -0.726705 l 0.914916,2.765662 h 0.799899 z"
           style="font-style:normal;font-variant:normal;font-weight:400;font-size:5.22809458px;font-family:'Fira Sans Medium';fill:#404040;stroke-width:0.16337796"
           id="path4848" />
        <path
           d="m 52.480272,74.780884 v -1.160637 c 0,-0.611687 -0.324142,-0.951513 -1.061303,-0.951513 -0.313686,0 -0.663968,0.06797 -1.003794,0.198668 l 0.156843,0.454844 c 0.277089,-0.09411 0.543722,-0.146387 0.731933,-0.146387 0.35551,0 0.517581,0.120246 0.517581,0.480985 v 0.156843 h -0.345054 c -0.805126,0 -1.259971,0.324142 -1.259971,0.925372 0,0.501897 0.339826,0.85218 0.894005,0.85218 0.329369,0 0.632599,-0.120246 0.826038,-0.41302 0.10979,0.266633 0.308458,0.376423 0.611688,0.402564 l 0.141158,-0.444388 c -0.13593,-0.05228 -0.209124,-0.130703 -0.209124,-0.355511 z m -1.192005,0.324142 c -0.256177,0 -0.392107,-0.151615 -0.392107,-0.418248 0,-0.324141 0.214352,-0.480984 0.648283,-0.480984 h 0.277089 V 74.7652 c -0.125474,0.21958 -0.298001,0.339826 -0.533265,0.339826 z"
           style="font-style:normal;font-variant:normal;font-weight:400;font-size:5.22809458px;font-family:'Fira Sans Medium';fill:#404040;stroke-width:0.16337796"
           id="path4850" />
        <path
           d="m 53.897657,75.591239 c 0.172528,0 0.32937,-0.04183 0.444388,-0.09411 l -0.141158,-0.470528 c -0.04705,0.01568 -0.09411,0.02614 -0.156843,0.02614 -0.10979,0 -0.156843,-0.06274 -0.156843,-0.193439 v -3.2937 l -0.669196,0.07319 v 3.241419 c 0,0.454844 0.256177,0.711021 0.679652,0.711021 z"
           style="font-style:normal;font-variant:normal;font-weight:400;font-size:5.22809458px;font-family:'Fira Sans Medium';fill:#404040;stroke-width:0.16337796"
           id="path4852" />
        <path
           d="m 56.997509,72.747155 h -0.669196 v 1.944852 c -0.146387,0.240492 -0.334598,0.392107 -0.559406,0.392107 -0.230036,0 -0.339826,-0.10979 -0.339826,-0.433932 v -1.903027 h -0.669196 v 1.986676 c 0,0.533266 0.271861,0.857408 0.773758,0.857408 0.376423,0 0.643055,-0.151615 0.846951,-0.465301 l 0.0366,0.386879 h 0.580318 z"
           style="font-style:normal;font-variant:normal;font-weight:400;font-size:5.22809458px;font-family:'Fira Sans Medium';fill:#404040;stroke-width:0.16337796"
           id="path4854" />
        <path
           d="m 60.067299,74.064635 c 0,-0.873092 -0.444388,-1.395901 -1.218146,-1.395901 -0.784214,0 -1.228603,0.637827 -1.228603,1.479551 0,0.873091 0.460073,1.442954 1.31748,1.442954 0.418248,0 0.752846,-0.151615 1.024707,-0.371195 l -0.277089,-0.381651 c -0.240493,0.167299 -0.444388,0.245721 -0.690109,0.245721 -0.365966,0 -0.632599,-0.182984 -0.679652,-0.747618 h 1.735727 c 0.0052,-0.07319 0.01568,-0.182983 0.01568,-0.271861 z m -0.663968,-0.162071 h -1.087444 c 0.0366,-0.54895 0.235264,-0.758073 0.54895,-0.758073 0.376423,0 0.538494,0.27186 0.538494,0.726705 z"
           style="font-style:normal;font-variant:normal;font-weight:400;font-size:5.22809458px;font-family:'Fira Sans Medium';fill:#404040;stroke-width:0.16337796"
           id="path4856" />
      </g>
      <path
         id="path4564"
         d="M 88.345559,67.376244 V 80.105993 H 117.35998 V 67.376244 Z"
         style="fill:#ffffff;fill-opacity:1;fill-rule:evenodd;stroke:none;stroke-width:0.16337796"
         inkscape:connector-curvature="0" />
      <path
         id="path4566"
         d="M 88.345559,67.376244 H 117.35998 V 80.105993 H 88.345559 Z"
         style="fill:none;stroke:#4472c4;stroke-width:0.20911294px;stroke-linecap:butt;stroke-linejoin:miter;stroke-miterlimit:8;stroke-dasharray:none;stroke-opacity:1"
         inkscape:connector-curvature="0" />
      <g
         aria-label="xvalue"
         style="font-style:normal;font-variant:normal;font-weight:400;font-size:5.22809458px;line-height:125%;font-family:'Fira Sans Medium';text-align:start;letter-spacing:0px;word-spacing:0px;text-anchor:start;fill:#000000;fill-opacity:1;stroke:none;stroke-width:0.16337796"
         id="text4572">
        <path
           d="m 96.819967,74.033267 0.799899,-1.286112 H 96.89316 l -0.4653,0.941057 -0.470529,-0.941057 H 95.19403 l 0.826039,1.307024 -0.920145,1.458638 h 0.737161 l 0.564634,-1.097899 0.569863,1.097899 h 0.773758 z"
           style="font-style:normal;font-variant:normal;font-weight:400;font-size:5.22809458px;font-family:'Fira Sans Medium';fill:#404040;stroke-width:0.16337796"
           id="path4859" />
        <path
           d="m 100.35416,72.747155 h -0.69011 l -0.606458,2.227169 -0.590775,-2.227169 h -0.726705 l 0.914916,2.765662 h 0.799899 z"
           style="font-style:normal;font-variant:normal;font-weight:400;font-size:5.22809458px;font-family:'Fira Sans Medium';fill:#404040;stroke-width:0.16337796"
           id="path4861" />
        <path
           d="m 102.70876,74.780884 v -1.160637 c 0,-0.611687 -0.32414,-0.951513 -1.0613,-0.951513 -0.31369,0 -0.66397,0.06797 -1.0038,0.198668 l 0.15685,0.454844 c 0.27709,-0.09411 0.54372,-0.146387 0.73193,-0.146387 0.35551,0 0.51758,0.120246 0.51758,0.480985 v 0.156843 h -0.34505 c -0.80513,0 -1.25997,0.324142 -1.25997,0.925372 0,0.501897 0.33982,0.85218 0.894,0.85218 0.32937,0 0.6326,-0.120246 0.82604,-0.41302 0.10979,0.266633 0.30846,0.376423 0.61169,0.402564 l 0.14116,-0.444388 c -0.13593,-0.05228 -0.20913,-0.130703 -0.20913,-0.355511 z m -1.192,0.324142 c -0.25618,0 -0.39211,-0.151615 -0.39211,-0.418248 0,-0.324141 0.21435,-0.480984 0.64828,-0.480984 h 0.27709 V 74.7652 c -0.12547,0.21958 -0.298,0.339826 -0.53326,0.339826 z"
           style="font-style:normal;font-variant:normal;font-weight:400;font-size:5.22809458px;font-family:'Fira Sans Medium';fill:#404040;stroke-width:0.16337796"
           id="path4863" />
        <path
           d="m 104.12615,75.591239 c 0.17252,0 0.32937,-0.04183 0.44439,-0.09411 l -0.14116,-0.470528 c -0.0471,0.01568 -0.0941,0.02614 -0.15685,0.02614 -0.10979,0 -0.15684,-0.06274 -0.15684,-0.193439 v -3.2937 l -0.6692,0.07319 v 3.241419 c 0,0.454844 0.25618,0.711021 0.67966,0.711021 z"
           style="font-style:normal;font-variant:normal;font-weight:400;font-size:5.22809458px;font-family:'Fira Sans Medium';fill:#404040;stroke-width:0.16337796"
           id="path4865" />
        <path
           d="m 107.226,72.747155 h -0.6692 v 1.944852 c -0.14638,0.240492 -0.3346,0.392107 -0.5594,0.392107 -0.23004,0 -0.33983,-0.10979 -0.33983,-0.433932 v -1.903027 h -0.6692 v 1.986676 c 0,0.533266 0.27187,0.857408 0.77376,0.857408 0.37643,0 0.64306,-0.151615 0.84695,-0.465301 l 0.0366,0.386879 h 0.58032 z"
           style="font-style:normal;font-variant:normal;font-weight:400;font-size:5.22809458px;font-family:'Fira Sans Medium';fill:#404040;stroke-width:0.16337796"
           id="path4867" />
        <path
           d="m 110.29579,74.064635 c 0,-0.873092 -0.44439,-1.395901 -1.21815,-1.395901 -0.78421,0 -1.2286,0.637827 -1.2286,1.479551 0,0.873091 0.46007,1.442954 1.31748,1.442954 0.41825,0 0.75285,-0.151615 1.02471,-0.371195 l -0.27709,-0.381651 c -0.24049,0.167299 -0.44439,0.245721 -0.69011,0.245721 -0.36597,0 -0.6326,-0.182984 -0.67965,-0.747618 h 1.73573 c 0.005,-0.07319 0.0157,-0.182983 0.0157,-0.271861 z m -0.66397,-0.162071 h -1.08744 c 0.0366,-0.54895 0.23526,-0.758073 0.54895,-0.758073 0.37642,0 0.53849,0.27186 0.53849,0.726705 z"
           style="font-style:normal;font-variant:normal;font-weight:400;font-size:5.22809458px;font-family:'Fira Sans Medium';fill:#404040;stroke-width:0.16337796"
           id="path4869" />
      </g>
      <path
         id="path4574"
         d="m 137.98374,67.376244 v 12.729749 h 29.01442 V 67.376244 Z"
         style="fill:#ffffff;fill-opacity:1;fill-rule:evenodd;stroke:none;stroke-width:0.16337796"
         inkscape:connector-curvature="0" />
      <path
         transform="matrix(0.16337796,0,0,0.16337796,37.910134,16.548733)"
         id="path4576"
         d="m 612.52819,311.10384 h 177.59077 v 77.91595 H 612.52819 Z"
         clip-path="url(#clipEmfPath1)"
         style="fill:none;stroke:#4472c4;stroke-width:1.27993357px;stroke-linecap:butt;stroke-linejoin:miter;stroke-miterlimit:8;stroke-dasharray:none;stroke-opacity:1"
         inkscape:connector-curvature="0" />
      <g
         aria-label="prvalue"
         style="font-style:normal;font-variant:normal;font-weight:400;font-size:5.22809458px;line-height:125%;font-family:'Fira Sans Medium';text-align:start;letter-spacing:0px;word-spacing:0px;text-anchor:start;fill:#000000;fill-opacity:1;stroke:none;stroke-width:0.16337796"
         id="text4582">
        <path
           d="m 145.29734,72.668734 c -0.298,0 -0.59077,0.130702 -0.81035,0.418247 l -0.0366,-0.339826 h -0.58555 v 3.905387 l 0.6692,-0.07319 v -1.29134 c 0.17253,0.203896 0.41302,0.30323 0.69534,0.30323 0.70056,0 1.09267,-0.622143 1.09267,-1.469095 0,-0.883548 -0.30323,-1.45341 -1.02471,-1.45341 z m -0.25618,2.410152 c -0.20912,0 -0.37642,-0.09411 -0.50712,-0.287546 v -1.244286 c 0.1307,-0.214352 0.32937,-0.376423 0.56463,-0.376423 0.3346,0 0.52281,0.256177 0.52281,0.956741 0,0.669196 -0.21435,0.951514 -0.58032,0.951514 z"
           style="font-style:normal;font-variant:normal;font-weight:400;font-size:5.22809458px;font-family:'Fira Sans Medium';fill:#404040;stroke-width:0.16337796"
           id="path4872" />
        <path
           d="m 148.34377,72.673962 c -0.32414,0 -0.59078,0.21958 -0.72148,0.616915 l -0.0627,-0.543722 h -0.58031 v 2.765662 h 0.66919 v -1.474322 c 0.10456,-0.465301 0.27709,-0.711021 0.61169,-0.711021 0.0941,0 0.16207,0.01046 0.24572,0.03137 l 0.11502,-0.648283 c -0.0889,-0.02614 -0.17776,-0.0366 -0.27709,-0.0366 z"
           style="font-style:normal;font-variant:normal;font-weight:400;font-size:5.22809458px;font-family:'Fira Sans Medium';fill:#404040;stroke-width:0.16337796"
           id="path4874" />
        <path
           d="m 151.26382,72.747155 h -0.69011 l -0.60645,2.227169 -0.59078,-2.227169 h -0.7267 l 0.91491,2.765662 h 0.7999 z"
           style="font-style:normal;font-variant:normal;font-weight:400;font-size:5.22809458px;font-family:'Fira Sans Medium';fill:#404040;stroke-width:0.16337796"
           id="path4876" />
        <path
           d="m 153.61843,74.780884 v -1.160637 c 0,-0.611687 -0.32415,-0.951513 -1.06131,-0.951513 -0.31368,0 -0.66397,0.06797 -1.00379,0.198668 l 0.15684,0.454844 c 0.27709,-0.09411 0.54372,-0.146387 0.73193,-0.146387 0.35552,0 0.51759,0.120246 0.51759,0.480985 v 0.156843 h -0.34506 c -0.80512,0 -1.25997,0.324142 -1.25997,0.925372 0,0.501897 0.33983,0.85218 0.89401,0.85218 0.32937,0 0.63259,-0.120246 0.82603,-0.41302 0.10979,0.266633 0.30846,0.376423 0.61169,0.402564 l 0.14116,-0.444388 c -0.13593,-0.05228 -0.20912,-0.130703 -0.20912,-0.355511 z m -1.19201,0.324142 c -0.25618,0 -0.39211,-0.151615 -0.39211,-0.418248 0,-0.324141 0.21436,-0.480984 0.64829,-0.480984 h 0.27709 V 74.7652 c -0.12548,0.21958 -0.29801,0.339826 -0.53327,0.339826 z"
           style="font-style:normal;font-variant:normal;font-weight:400;font-size:5.22809458px;font-family:'Fira Sans Medium';fill:#404040;stroke-width:0.16337796"
           id="path4878" />
        <path
           d="m 155.03581,75.591239 c 0.17253,0 0.32937,-0.04183 0.44439,-0.09411 l -0.14116,-0.470528 c -0.0471,0.01568 -0.0941,0.02614 -0.15684,0.02614 -0.10979,0 -0.15684,-0.06274 -0.15684,-0.193439 v -3.2937 l -0.6692,0.07319 v 3.241419 c 0,0.454844 0.25618,0.711021 0.67965,0.711021 z"
           style="font-style:normal;font-variant:normal;font-weight:400;font-size:5.22809458px;font-family:'Fira Sans Medium';fill:#404040;stroke-width:0.16337796"
           id="path4880" />
        <path
           d="m 158.13566,72.747155 h -0.66919 v 1.944852 c -0.14639,0.240492 -0.3346,0.392107 -0.55941,0.392107 -0.23004,0 -0.33983,-0.10979 -0.33983,-0.433932 v -1.903027 h -0.66919 v 1.986676 c 0,0.533266 0.27186,0.857408 0.77376,0.857408 0.37642,0 0.64305,-0.151615 0.84695,-0.465301 l 0.0366,0.386879 h 0.58032 z"
           style="font-style:normal;font-variant:normal;font-weight:400;font-size:5.22809458px;font-family:'Fira Sans Medium';fill:#404040;stroke-width:0.16337796"
           id="path4882" />
        <path
           d="m 161.20545,74.064635 c 0,-0.873092 -0.44439,-1.395901 -1.21814,-1.395901 -0.78422,0 -1.22861,0.637827 -1.22861,1.479551 0,0.873091 0.46008,1.442954 1.31748,1.442954 0.41825,0 0.75285,-0.151615 1.02471,-0.371195 l -0.27709,-0.381651 c -0.24049,0.167299 -0.44439,0.245721 -0.69011,0.245721 -0.36596,0 -0.6326,-0.182984 -0.67965,-0.747618 h 1.73573 c 0.005,-0.07319 0.0157,-0.182983 0.0157,-0.271861 z m -0.66397,-0.162071 h -1.08744 c 0.0366,-0.54895 0.23527,-0.758073 0.54895,-0.758073 0.37642,0 0.53849,0.27186 0.53849,0.726705 z"
           style="font-style:normal;font-variant:normal;font-weight:400;font-size:5.22809458px;font-family:'Fira Sans Medium';fill:#404040;stroke-width:0.16337796"
           id="path4884" />
      </g>
      <path
         id="path4584"
         d="m 102.77435,30.039784 -8.452736,9.060471 0.189509,0.176439 8.456007,-9.057203 z m -9.004926,8.246891 -0.692686,2.336184 2.283906,-0.849521 z"
         style="fill:#4472c4;fill-opacity:1;fill-rule:nonzero;stroke:#4472c4;stroke-width:0.00326739px;stroke-linecap:butt;stroke-linejoin:round;stroke-miterlimit:4;stroke-dasharray:none;stroke-opacity:1"
         inkscape:connector-curvature="0" />
      <path
         id="path4586"
         d="m 102.94425,30.036517 10.0701,9.168295 -0.1699,0.196044 -10.07663,-9.174831 z m 10.56021,8.312239 0.87566,2.274103 -2.34599,-0.660012 z"
         style="fill:#4472c4;fill-opacity:1;fill-rule:nonzero;stroke:#4472c4;stroke-width:0.00653478px;stroke-linecap:butt;stroke-linejoin:round;stroke-miterlimit:4;stroke-dasharray:none;stroke-opacity:1"
         inkscape:connector-curvature="0" />
      <path
         id="path4588"
         d="m 69.760646,53.241516 -15.10514,12.762425 0.169903,0.199309 15.105142,-12.762422 z m -15.556041,11.890032 -0.96388,2.234893 2.368857,-0.571792 z"
         style="fill:#4472c4;fill-opacity:1;fill-rule:nonzero;stroke:#4472c4;stroke-width:0.00326739px;stroke-linecap:butt;stroke-linejoin:round;stroke-miterlimit:4;stroke-dasharray:none;stroke-opacity:1"
         inkscape:connector-curvature="0" />
      <path
         id="path4590"
         d="M 69.920748,53.23825 86.875232,66.07909 86.718398,66.288204 69.760646,53.444095 Z m 17.35964,11.945576 1.078239,2.182615 -2.394996,-0.444363 z"
         style="fill:#4472c4;fill-opacity:1;fill-rule:nonzero;stroke:#4472c4;stroke-width:0.00326739px;stroke-linecap:butt;stroke-linejoin:round;stroke-miterlimit:4;stroke-dasharray:none;stroke-opacity:1"
         inkscape:connector-curvature="0" />
      <path
         id="path4592"
         d="m 137.55244,53.234983 -18.42154,12.899654 0.1503,0.215647 18.42154,-12.899654 z m -18.79402,11.991318 -1.16319,2.143408 2.41133,-0.359412 z"
         style="fill:#4472c4;fill-opacity:1;fill-rule:nonzero;stroke:#4472c4;stroke-width:0.00653478px;stroke-linecap:butt;stroke-linejoin:round;stroke-miterlimit:4;stroke-dasharray:none;stroke-opacity:1"
         inkscape:connector-curvature="0" />
      <path
         id="path4594"
         d="m 137.70928,53.248051 13.65769,12.690542 -0.17644,0.189508 -13.65769,-12.690541 z m 14.15433,11.841021 0.84952,2.280637 -2.33292,-0.686152 z"
         style="fill:#4472c4;fill-opacity:1;fill-rule:nonzero;stroke:#4472c4;stroke-width:0.00653478px;stroke-linecap:butt;stroke-linejoin:round;stroke-miterlimit:4;stroke-dasharray:none;stroke-opacity:1"
         inkscape:connector-curvature="0" />
      <path
         id="path4596"
         d="m 152.77194,80.027576 -0.0131,0.241786 -0.0261,0.254857 -0.0457,0.248321 -0.0653,0.254857 -0.0131,0.04574 -0.32674,-0.104557 0.0196,-0.04574 -0.007,0.01307 0.0653,-0.241786 -0.007,0.01307 0.0457,-0.241786 v 0.01307 l 0.0261,-0.241788 -0.007,0.01307 0.0131,-0.241786 z m -0.28099,1.378838 -0.0523,0.117626 -0.11763,0.248321 -0.13069,0.241788 -0.14377,0.241787 -0.0523,0.07842 -0.281,-0.189509 0.0457,-0.07188 v 0.0065 l 0.14377,-0.235253 -0.007,0.0065 0.12416,-0.235252 v 0.0065 l 0.1111,-0.241787 -0.007,0.01307 0.0457,-0.117628 z m -0.69922,1.208935 -0.0915,0.124161 -0.19604,0.241786 -0.20912,0.235253 -0.18297,0.189509 -0.24179,-0.235253 0.17644,-0.189509 v 0.0065 l 0.20258,-0.235253 -0.007,0.0065 0.1895,-0.235252 v 0.0065 l 0.085,-0.117625 z m -0.92794,1.032495 -0.0327,0.03267 -0.24832,0.228718 -0.26792,0.228716 -0.22872,0.189508 -0.21565,-0.267925 0.22872,-0.182973 v 0 l 0.26139,-0.222183 -0.007,0.0065 0.24832,-0.228716 h -0.007 l 0.0327,-0.02614 z m -1.0521,0.88873 -0.0653,0.05228 -0.3006,0.215647 -0.3202,0.222183 -0.15684,0.104557 -0.18951,-0.287531 0.15684,-0.104557 v 0.0065 l 0.31367,-0.215648 h -0.007 l 0.3006,-0.215647 v 0 l 0.0653,-0.04574 z m -1.13052,0.777638 -0.22218,0.137231 -0.35288,0.209113 -0.30713,0.176438 -0.16991,-0.294064 0.30714,-0.17644 v 0 l 0.34634,-0.202577 v 0 l 0.21565,-0.137231 z m -1.18279,0.686152 -0.1307,0.07188 -0.37902,0.202577 -0.39862,0.196044 h -0.007 l -0.1503,-0.300599 0.0131,-0.0065 h -0.007 l 0.39209,-0.196044 v 0 l 0.37902,-0.196044 v 0 l 0.12416,-0.06535 z m -1.22201,0.620804 -0.0915,0.03921 -0.41169,0.196043 -0.4313,0.182974 -0.13723,-0.313669 0.4313,-0.182974 h -0.007 l 0.41169,-0.189509 v 0 l 0.0849,-0.03921 z m -1.24814,0.555457 -0.11763,0.04574 -0.83645,0.333275 -0.12416,-0.313669 0.83645,-0.333275 h -0.007 l 0.11109,-0.04574 z m -1.27428,0.496643 -0.66655,0.241786 -0.3006,0.104557 -0.10455,-0.32674 0.29406,-0.09802 v 0 l 0.66001,-0.241787 z m -1.28735,0.4509 -0.33981,0.11109 -0.63387,0.196044 -0.10456,-0.320204 0.64041,-0.196044 h -0.007 l 0.33328,-0.11109 z m -1.30042,0.41169 -0.0261,0.0065 -0.96061,0.267926 -0.0915,-0.326739 0.95408,-0.267925 v 0 l 0.0261,-0.0065 z m -1.32003,0.359413 -0.76457,0.196044 -0.22871,0.05228 -0.0784,-0.333274 0.22871,-0.05228 -0.007,0.0065 0.76457,-0.196043 z m -1.32656,0.320205 -0.50318,0.117625 -0.49664,0.104557 -0.0653,-0.333275 0.49011,-0.104555 h -0.007 l 0.50971,-0.111092 z m -1.33309,0.28753 -0.25486,0.05228 -0.74496,0.137231 -0.0653,-0.333275 0.74496,-0.137229 h -0.007 l 0.26139,-0.05228 z m -1.33963,0.248322 -0.0196,0.0065 -0.98675,0.156834 -0.0523,-0.33981 0.98022,-0.150299 v 0 l 0.0196,-0.0065 z m -1.34617,0.209112 -0.92794,0.124161 -0.0915,0.0065 -0.0327,-0.333273 0.0849,-0.01307 v 0 l 0.92141,-0.12416 z m -1.3527,0.169905 -0.71882,0.07842 -0.3006,0.02614 -0.0327,-0.339808 0.3006,-0.02614 v 0 l 0.7123,-0.07842 z m -1.35923,0.137229 -0.51625,0.03921 -0.50318,0.03267 -0.0196,-0.339808 0.50318,-0.02614 h -0.007 l 0.51625,-0.04574 z m -1.35923,0.09149 -0.31367,0.0196 -0.7123,0.03267 -0.007,-0.339808 0.69922,-0.03267 v 0.0065 l 0.31367,-0.0196 z m -1.35924,0.06535 h -0.12416 l -0.9018,0.01307 -0.007,-0.339808 0.9018,-0.01307 v 0 h 0.11762 z m -1.3723,0.01307 -1.01943,-0.0065 0.007,-0.339808 1.01942,0.0065 z m -1.35924,-0.0196 -0.88219,-0.03267 -0.14377,-0.0065 0.0196,-0.339808 0.14376,0.0065 h -0.007 l 0.88219,0.03267 z m -1.36577,-0.06535 -0.67961,-0.03921 -0.33981,-0.02614 0.0261,-0.339808 0.33981,0.02614 v 0 l 0.67308,0.04574 z m -1.35923,-0.09802 -0.4705,-0.03921 -0.54892,-0.05881 0.0392,-0.339809 0.54239,0.05881 v 0 l 0.4705,0.03921 z m -1.3527,-0.130695 -0.26139,-0.03267 -0.75803,-0.09802 0.0457,-0.339808 0.7515,0.104557 v 0 l 0.25485,0.02614 z m -1.3527,-0.176439 -0.0392,-0.0065 -0.97368,-0.143766 0.0523,-0.339808 0.96715,0.150299 v 0 l 0.0392,0.0065 z m -1.3527,-0.209114 -0.90833,-0.16337 -0.098,-0.0196 0.0653,-0.333273 0.098,0.0196 h -0.007 l 0.90834,0.16337 z m -1.33963,-0.248321 -0.65347,-0.130696 -0.34635,-0.07842 0.0719,-0.333274 0.34635,0.07842 h -0.007 l 0.65348,0.130696 z m -1.33309,-0.280996 -0.38555,-0.08495 -0.60774,-0.156835 0.0784,-0.326739 0.60773,0.150299 h -0.007 l 0.38555,0.08495 z m -1.32656,-0.320204 -0.10456,-0.02614 -0.88219,-0.241786 0.0915,-0.32674 0.8822,0.241787 -0.007,-0.0065 0.10456,0.02614 z m -1.32003,-0.365947 -0.79071,-0.235253 -0.18297,-0.06535 0.10456,-0.320203 0.18297,0.05881 v 0 l 0.78417,0.235251 z m -1.30042,-0.405156 -0.4509,-0.143766 -0.51625,-0.189509 0.11763,-0.320203 0.50971,0.182974 v 0 l 0.44437,0.150299 z m -1.28735,-0.444365 -0.0915,-0.03267 -0.86259,-0.333273 0.12416,-0.320205 0.86259,0.333273 h -0.007 l 0.0915,0.03267 z m -1.27428,-0.503178 -0.56853,-0.235253 -0.37248,-0.169903 0.14377,-0.307135 0.36594,0.163369 v 0 l 0.56199,0.235252 z m -1.24814,-0.548922 -0.13724,-0.06535 -0.39862,-0.196042 -0.38555,-0.196044 v 0 l 0.15684,-0.300601 h 0.007 -0.007 l 0.38555,0.196044 h -0.007 l 0.39209,0.189508 v 0 l 0.13723,0.06535 z m -1.22201,-0.614269 -0.0719,-0.03921 -0.35941,-0.202577 -0.35288,-0.202579 -0.11109,-0.07188 0.18297,-0.287531 0.10456,0.06535 h -0.007 l 0.35288,0.202579 h -0.007 l 0.35941,0.196044 v 0 l 0.0719,0.03921 z m -1.18279,-0.692687 -0.27446,-0.17644 -0.31367,-0.209112 -0.26793,-0.189509 0.19604,-0.280995 0.26793,0.189509 h -0.007 l 0.31366,0.209112 v 0 l 0.26793,0.169905 z m -1.13052,-0.784173 -0.0523,-0.03921 -0.28099,-0.215647 -0.2614,-0.228718 -0.20257,-0.176439 0.22871,-0.248321 0.19605,0.169903 h -0.007 l 0.26139,0.222183 v -0.0065 l 0.27446,0.215649 h -0.007 l 0.0523,0.03921 z m -1.04556,-0.895265 -0.0392,-0.03921 -0.22219,-0.228718 -0.20911,-0.228717 -0.19604,-0.235251 -0.0327,-0.03921 0.26793,-0.209114 0.0327,0.03921 -0.007,-0.0065 0.18951,0.228718 v -0.0065 l 0.20258,0.228718 -0.007,-0.0065 0.22218,0.222182 h -0.007 l 0.0392,0.03267 z m -0.90834,-1.052099 -0.11763,-0.16337 -0.0915,-0.261391 0.3202,-0.117626 0.085,0.241786 -0.0196,-0.03921 0.10456,0.143764 z m -1.01942,0.06535 0.35287,-2.411334 1.71865,1.731716 z"
         style="fill:#00b050;fill-opacity:1;fill-rule:nonzero;stroke:#00b050;stroke-width:0.00653478px;stroke-linecap:butt;stroke-linejoin:round;stroke-miterlimit:4;stroke-dasharray:none;stroke-opacity:1"
         inkscape:connector-curvature="0" />
      <g
         aria-label="t"
         style="font-style:normal;font-variant:normal;font-weight:400;font-size:3.92107105px;line-height:125%;font-family:'Fira Sans';text-align:start;letter-spacing:0px;word-spacing:0px;text-anchor:start;fill:#000000;fill-opacity:1;stroke:none;stroke-width:0.16337796"
         id="text4602">
        <path
           d="m 105.52461,97.088065 c -0.10195,0.0549 -0.18429,0.08234 -0.27448,0.08234 -0.18037,0 -0.24703,-0.09803 -0.24703,-0.305844 v -1.231216 h 0.45093 l 0.0392,-0.278396 h -0.49014 v -0.509739 l -0.36073,0.04313 v 0.466608 h -0.36074 v 0.278396 h 0.36074 v 1.2469 c 0,0.384265 0.20781,0.588161 0.55679,0.588161 0.17645,0 0.32545,-0.04705 0.46268,-0.141159 z"
           style="font-style:normal;font-variant:normal;font-weight:400;font-size:3.92107105px;font-family:'Fira Sans';fill:#000000;stroke-width:0.16337796"
           id="path4887" />
      </g>
      <g
         aria-label="emporary"
         style="font-style:normal;font-variant:normal;font-weight:400;font-size:3.92107105px;line-height:125%;font-family:'Fira Sans';text-align:start;letter-spacing:0px;word-spacing:0px;text-anchor:start;fill:#000000;fill-opacity:1;stroke:none;stroke-width:0.16337796"
         id="text4608">
        <path
           d="m 107.59094,96.327377 c 0,-0.631292 -0.29408,-1.019478 -0.85087,-1.019478 -0.53327,0 -0.85872,0.458765 -0.85872,1.101821 0,0.654819 0.33722,1.058689 0.91361,1.058689 0.28624,0 0.51758,-0.09803 0.72148,-0.258791 l -0.15684,-0.215659 c -0.18037,0.125475 -0.33329,0.18037 -0.53719,0.18037 -0.298,0 -0.5215,-0.184291 -0.55679,-0.662661 h 1.31748 c 0.004,-0.04705 0.008,-0.113711 0.008,-0.184291 z m -0.35682,-0.08234 h -0.9685 c 0.0275,-0.458765 0.20781,-0.650898 0.48229,-0.650898 0.32545,0 0.48621,0.223501 0.48621,0.627371 z"
           style="font-style:normal;font-variant:normal;font-weight:400;font-size:3.92107105px;font-family:'Fira Sans';fill:#000000;stroke-width:0.16337796"
           id="path4890" />
        <path
           d="m 110.24128,95.307899 c -0.2784,0 -0.46661,0.149001 -0.61561,0.372502 -0.0784,-0.235265 -0.26663,-0.372502 -0.5215,-0.372502 -0.27056,0 -0.45877,0.141158 -0.59601,0.348975 l -0.0314,-0.301922 h -0.30977 v 2.066404 h 0.36074 v -1.46648 c 0.13724,-0.21958 0.26271,-0.36466 0.48621,-0.36466 0.15685,0 0.29016,0.09019 0.29016,0.399949 v 1.431191 h 0.36074 v -1.46648 c 0.14116,-0.21958 0.26271,-0.36466 0.48621,-0.36466 0.15685,0 0.29016,0.09019 0.29016,0.399949 v 1.431191 h 0.36074 v -1.482165 c 0,-0.388186 -0.2235,-0.631292 -0.56071,-0.631292 z"
           style="font-style:normal;font-variant:normal;font-weight:400;font-size:3.92107105px;font-family:'Fira Sans';fill:#000000;stroke-width:0.16337796"
           id="path4892" />
        <path
           d="m 112.47794,95.307899 c -0.23526,0 -0.45876,0.113711 -0.61168,0.325449 l -0.0275,-0.278396 h -0.30977 v 2.901592 l 0.36074,-0.04313 v -0.980268 c 0.13332,0.160764 0.31761,0.235264 0.54111,0.235264 0.53327,0 0.81166,-0.454844 0.81166,-1.082216 0,-0.650897 -0.21566,-1.078294 -0.76461,-1.078294 z m -0.13331,1.86643 c -0.18822,0 -0.34898,-0.09019 -0.45485,-0.250949 v -1.007715 c 0.10979,-0.164685 0.2784,-0.321528 0.49798,-0.321528 0.30976,0 0.46661,0.25487 0.46661,0.792056 0,0.541108 -0.18037,0.788136 -0.50974,0.788136 z"
           style="font-style:normal;font-variant:normal;font-weight:400;font-size:3.92107105px;font-family:'Fira Sans';fill:#000000;stroke-width:0.16337796"
           id="path4894" />
        <path
           d="m 114.63355,95.307899 c -0.58816,0 -0.92537,0.443081 -0.92537,1.082216 0,0.654818 0.33329,1.078294 0.92145,1.078294 0.58424,0 0.92145,-0.443081 0.92145,-1.082216 0,-0.654818 -0.32937,-1.078294 -0.91753,-1.078294 z m 0,0.290159 c 0.34113,0 0.52935,0.250949 0.52935,0.788135 0,0.541108 -0.18822,0.792057 -0.53327,0.792057 -0.34505,0 -0.53327,-0.250949 -0.53327,-0.788135 0,-0.541108 0.19214,-0.792057 0.53719,-0.792057 z"
           style="font-style:normal;font-variant:normal;font-weight:400;font-size:3.92107105px;font-family:'Fira Sans';fill:#000000;stroke-width:0.16337796"
           id="path4896" />
        <path
           d="m 117.04495,95.307899 c -0.25095,0 -0.44308,0.156843 -0.55287,0.466607 l -0.0353,-0.419554 h -0.30977 v 2.066404 h 0.36074 v -1.180242 c 0.0863,-0.396028 0.23527,-0.580319 0.49406,-0.580319 0.0745,0 0.11763,0.0078 0.18037,0.02353 l 0.0666,-0.352897 c -0.0627,-0.01568 -0.13723,-0.02353 -0.20389,-0.02353 z"
           style="font-style:normal;font-variant:normal;font-weight:400;font-size:3.92107105px;font-family:'Fira Sans';fill:#000000;stroke-width:0.16337796"
           id="path4898" />
        <path
           d="m 118.91751,96.939064 v -0.944978 c 0,-0.431317 -0.22743,-0.686187 -0.7254,-0.686187 -0.23135,0 -0.45877,0.04705 -0.71364,0.141158 l 0.0902,0.262712 c 0.21174,-0.07058 0.40387,-0.10979 0.55679,-0.10979 0.28624,0 0.43132,0.10979 0.43132,0.407792 v 0.152921 h -0.31761 c -0.5764,0 -0.90969,0.239186 -0.90969,0.682267 0,0.36858 0.24703,0.62345 0.65874,0.62345 0.25095,0 0.47053,-0.09411 0.61561,-0.309765 0.0627,0.203896 0.19605,0.286239 0.40387,0.309765 l 0.0823,-0.250948 c -0.10587,-0.03921 -0.17252,-0.09803 -0.17252,-0.278397 z m -0.84696,0.258791 c -0.23526,0 -0.35681,-0.129395 -0.35681,-0.372502 0,-0.282317 0.19213,-0.423475 0.57247,-0.423475 h 0.27056 v 0.474449 c -0.11763,0.215659 -0.27448,0.321528 -0.48622,0.321528 z"
           style="font-style:normal;font-variant:normal;font-weight:400;font-size:3.92107105px;font-family:'Fira Sans';fill:#000000;stroke-width:0.16337796"
           id="path4900" />
        <path
           d="m 120.56013,95.307899 c -0.25095,0 -0.44308,0.156843 -0.55287,0.466607 l -0.0353,-0.419554 h -0.30977 v 2.066404 h 0.36074 v -1.180242 c 0.0863,-0.396028 0.23527,-0.580319 0.49406,-0.580319 0.0745,0 0.11763,0.0078 0.18037,0.02353 l 0.0666,-0.352897 c -0.0627,-0.01568 -0.13723,-0.02353 -0.20389,-0.02353 z"
           style="font-style:normal;font-variant:normal;font-weight:400;font-size:3.92107105px;font-family:'Fira Sans';fill:#000000;stroke-width:0.16337796"
           id="path4902" />
        <path
           d="m 122.69601,95.354952 h -0.3725 l -0.54111,1.803692 -0.55287,-1.803692 h -0.38427 l 0.69403,2.066404 h 0.12156 c -0.11764,0.321528 -0.23527,0.482292 -0.65482,0.552871 l 0.0392,0.282317 c 0.57247,-0.06274 0.81558,-0.384265 0.96066,-0.823425 z"
           style="font-style:normal;font-variant:normal;font-weight:400;font-size:3.92107105px;font-family:'Fira Sans';fill:#000000;stroke-width:0.16337796"
           id="path4904" />
      </g>
      <g
         aria-label="materialization"
         style="font-style:normal;font-variant:normal;font-weight:400;font-size:3.92107105px;line-height:125%;font-family:'Fira Sans';text-align:start;letter-spacing:0px;word-spacing:0px;text-anchor:start;fill:#000000;fill-opacity:1;stroke:none;stroke-width:0.16337796"
         id="text4614">
        <path
           d="m 126.34969,95.307899 c -0.27839,0 -0.4666,0.149001 -0.6156,0.372502 -0.0784,-0.235265 -0.26664,-0.372502 -0.52151,-0.372502 -0.27055,0 -0.45876,0.141158 -0.596,0.348975 l -0.0314,-0.301922 h -0.30976 v 2.066404 h 0.36074 v -1.46648 c 0.13723,-0.21958 0.26271,-0.36466 0.48621,-0.36466 0.15684,0 0.29016,0.09019 0.29016,0.399949 v 1.431191 h 0.36074 v -1.46648 c 0.14116,-0.21958 0.26271,-0.36466 0.48621,-0.36466 0.15684,0 0.29016,0.09019 0.29016,0.399949 v 1.431191 h 0.36074 v -1.482165 c 0,-0.388186 -0.2235,-0.631292 -0.56072,-0.631292 z"
           style="font-style:normal;font-variant:normal;font-weight:400;font-size:3.92107105px;font-family:'Fira Sans';fill:#000000;stroke-width:0.16337796"
           id="path4907" />
        <path
           d="m 129.02944,96.939064 v -0.944978 c 0,-0.431317 -0.22742,-0.686187 -0.7254,-0.686187 -0.23134,0 -0.45876,0.04705 -0.71363,0.141158 l 0.0902,0.262712 c 0.21174,-0.07058 0.40387,-0.10979 0.55679,-0.10979 0.28624,0 0.43132,0.10979 0.43132,0.407792 v 0.152921 h -0.3176 c -0.5764,0 -0.90969,0.239186 -0.90969,0.682267 0,0.36858 0.24702,0.62345 0.65874,0.62345 0.25095,0 0.47053,-0.09411 0.6156,-0.309765 0.0627,0.203896 0.19606,0.286239 0.40388,0.309765 l 0.0823,-0.250948 c -0.10587,-0.03921 -0.17253,-0.09803 -0.17253,-0.278397 z m -0.84695,0.258791 c -0.23527,0 -0.35682,-0.129395 -0.35682,-0.372502 0,-0.282317 0.19213,-0.423475 0.57248,-0.423475 h 0.27055 v 0.474449 c -0.11763,0.215659 -0.27447,0.321528 -0.48621,0.321528 z"
           style="font-style:normal;font-variant:normal;font-weight:400;font-size:3.92107105px;font-family:'Fira Sans';fill:#000000;stroke-width:0.16337796"
           id="path4909" />
        <path
           d="m 130.67991,97.088065 c -0.10195,0.0549 -0.1843,0.08234 -0.27448,0.08234 -0.18037,0 -0.24703,-0.09803 -0.24703,-0.305844 v -1.231216 h 0.45093 l 0.0392,-0.278396 h -0.49014 v -0.509739 l -0.36074,0.04313 v 0.466608 h -0.36073 v 0.278396 h 0.36073 v 1.2469 c 0,0.384265 0.20782,0.588161 0.5568,0.588161 0.17644,0 0.32545,-0.04705 0.46268,-0.141159 z"
           style="font-style:normal;font-variant:normal;font-weight:400;font-size:3.92107105px;font-family:'Fira Sans';fill:#000000;stroke-width:0.16337796"
           id="path4911" />
        <path
           d="m 132.69025,96.327377 c 0,-0.631292 -0.29408,-1.019478 -0.85087,-1.019478 -0.53327,0 -0.85872,0.458765 -0.85872,1.101821 0,0.654819 0.33722,1.058689 0.91361,1.058689 0.28624,0 0.51758,-0.09803 0.72148,-0.258791 l -0.15684,-0.215659 c -0.18037,0.125475 -0.33329,0.18037 -0.53719,0.18037 -0.298,0 -0.5215,-0.184291 -0.55679,-0.662661 h 1.31748 c 0.004,-0.04705 0.008,-0.113711 0.008,-0.184291 z m -0.35682,-0.08234 h -0.9685 c 0.0275,-0.458765 0.20782,-0.650898 0.48229,-0.650898 0.32545,0 0.48621,0.223501 0.48621,0.627371 z"
           style="font-style:normal;font-variant:normal;font-weight:400;font-size:3.92107105px;font-family:'Fira Sans';fill:#000000;stroke-width:0.16337796"
           id="path4913" />
        <path
           d="m 134.16427,95.307899 c -0.25095,0 -0.44308,0.156843 -0.55287,0.466607 l -0.0353,-0.419554 h -0.30977 v 2.066404 h 0.36074 v -1.180242 c 0.0863,-0.396028 0.23526,-0.580319 0.49406,-0.580319 0.0745,0 0.11763,0.0078 0.18036,0.02353 l 0.0667,-0.352897 c -0.0627,-0.01568 -0.13723,-0.02353 -0.20389,-0.02353 z"
           style="font-style:normal;font-variant:normal;font-weight:400;font-size:3.92107105px;font-family:'Fira Sans';fill:#000000;stroke-width:0.16337796"
           id="path4915" />
        <path
           d="m 134.95914,94.362921 c -0.149,0 -0.25095,0.105869 -0.25095,0.247027 0,0.137238 0.10195,0.243107 0.25095,0.243107 0.15292,0 0.25487,-0.105869 0.25487,-0.243107 0,-0.141158 -0.10195,-0.247027 -0.25487,-0.247027 z m 0.18429,0.992031 h -0.36074 v 2.066404 h 0.36074 z"
           style="font-style:normal;font-variant:normal;font-weight:400;font-size:3.92107105px;font-family:'Fira Sans';fill:#000000;stroke-width:0.16337796"
           id="path4917" />
        <path
           d="m 137.27747,96.939064 v -0.944978 c 0,-0.431317 -0.22742,-0.686187 -0.72539,-0.686187 -0.23135,0 -0.45877,0.04705 -0.71364,0.141158 l 0.0902,0.262712 c 0.21173,-0.07058 0.40387,-0.10979 0.55679,-0.10979 0.28624,0 0.43132,0.10979 0.43132,0.407792 v 0.152921 h -0.31761 c -0.5764,0 -0.90969,0.239186 -0.90969,0.682267 0,0.36858 0.24703,0.62345 0.65874,0.62345 0.25095,0 0.47053,-0.09411 0.61561,-0.309765 0.0627,0.203896 0.19605,0.286239 0.40387,0.309765 l 0.0823,-0.250948 c -0.10587,-0.03921 -0.17253,-0.09803 -0.17253,-0.278397 z m -0.84695,0.258791 c -0.23526,0 -0.35681,-0.129395 -0.35681,-0.372502 0,-0.282317 0.19213,-0.423475 0.57247,-0.423475 h 0.27056 v 0.474449 c -0.11764,0.215659 -0.27448,0.321528 -0.48622,0.321528 z"
           style="font-style:normal;font-variant:normal;font-weight:400;font-size:3.92107105px;font-family:'Fira Sans';fill:#000000;stroke-width:0.16337796"
           id="path4919" />
        <path
           d="m 138.39559,97.468409 c 0.10587,0 0.20782,-0.02745 0.28624,-0.07058 l -0.0941,-0.250949 c -0.0392,0.01569 -0.0823,0.02353 -0.13332,0.02353 -0.0941,0 -0.1294,-0.05489 -0.1294,-0.164685 v -2.52517 l -0.36073,0.04313 v 2.48988 c 0,0.29408 0.1686,0.454844 0.43131,0.454844 z"
           style="font-style:normal;font-variant:normal;font-weight:400;font-size:3.92107105px;font-family:'Fira Sans';fill:#000000;stroke-width:0.16337796"
           id="path4921" />
        <path
           d="m 139.30908,94.362921 c -0.149,0 -0.25095,0.105869 -0.25095,0.247027 0,0.137238 0.10195,0.243107 0.25095,0.243107 0.15292,0 0.25487,-0.105869 0.25487,-0.243107 0,-0.141158 -0.10195,-0.247027 -0.25487,-0.247027 z m 0.18429,0.992031 h -0.36074 v 2.066404 h 0.36074 z"
           style="font-style:normal;font-variant:normal;font-weight:400;font-size:3.92107105px;font-family:'Fira Sans';fill:#000000;stroke-width:0.16337796"
           id="path4923" />
        <path
           d="m 141.44704,95.354952 h -1.3959 v 0.305843 h 0.98419 l -1.07437,1.490007 v 0.270554 h 1.45472 l 0.0431,-0.301922 h -1.09006 l 1.07829,-1.490007 z"
           style="font-style:normal;font-variant:normal;font-weight:400;font-size:3.92107105px;font-family:'Fira Sans';fill:#000000;stroke-width:0.16337796"
           id="path4925" />
        <path
           d="m 143.28162,96.939064 v -0.944978 c 0,-0.431317 -0.22743,-0.686187 -0.7254,-0.686187 -0.23135,0 -0.45877,0.04705 -0.71364,0.141158 l 0.0902,0.262712 c 0.21174,-0.07058 0.40387,-0.10979 0.55679,-0.10979 0.28624,0 0.43132,0.10979 0.43132,0.407792 v 0.152921 h -0.31761 c -0.5764,0 -0.90969,0.239186 -0.90969,0.682267 0,0.36858 0.24703,0.62345 0.65874,0.62345 0.25095,0 0.47053,-0.09411 0.61561,-0.309765 0.0627,0.203896 0.19605,0.286239 0.40387,0.309765 l 0.0823,-0.250948 c -0.10587,-0.03921 -0.17252,-0.09803 -0.17252,-0.278397 z m -0.84696,0.258791 c -0.23526,0 -0.35681,-0.129395 -0.35681,-0.372502 0,-0.282317 0.19213,-0.423475 0.57247,-0.423475 h 0.27056 v 0.474449 c -0.11763,0.215659 -0.27448,0.321528 -0.48622,0.321528 z"
           style="font-style:normal;font-variant:normal;font-weight:400;font-size:3.92107105px;font-family:'Fira Sans';fill:#000000;stroke-width:0.16337796"
           id="path4927" />
        <path
           d="m 144.93208,97.088065 c -0.10195,0.0549 -0.18429,0.08234 -0.27448,0.08234 -0.18036,0 -0.24702,-0.09803 -0.24702,-0.305844 v -1.231216 h 0.45092 l 0.0392,-0.278396 h -0.49013 v -0.509739 l -0.36074,0.04313 v 0.466608 h -0.36074 v 0.278396 h 0.36074 v 1.2469 c 0,0.384265 0.20782,0.588161 0.55679,0.588161 0.17645,0 0.32545,-0.04705 0.46269,-0.141159 z"
           style="font-style:normal;font-variant:normal;font-weight:400;font-size:3.92107105px;font-family:'Fira Sans';fill:#000000;stroke-width:0.16337796"
           id="path4929" />
        <path
           d="m 145.61955,94.362921 c -0.149,0 -0.25094,0.105869 -0.25094,0.247027 0,0.137238 0.10194,0.243107 0.25094,0.243107 0.15293,0 0.25487,-0.105869 0.25487,-0.243107 0,-0.141158 -0.10194,-0.247027 -0.25487,-0.247027 z m 0.18429,0.992031 h -0.36073 v 2.066404 h 0.36073 z"
           style="font-style:normal;font-variant:normal;font-weight:400;font-size:3.92107105px;font-family:'Fira Sans';fill:#000000;stroke-width:0.16337796"
           id="path4931" />
        <path
           d="m 147.32228,95.307899 c -0.58816,0 -0.92537,0.443081 -0.92537,1.082216 0,0.654818 0.33329,1.078294 0.92145,1.078294 0.58424,0 0.92145,-0.443081 0.92145,-1.082216 0,-0.654818 -0.32937,-1.078294 -0.91753,-1.078294 z m 0,0.290159 c 0.34113,0 0.52934,0.250949 0.52934,0.788135 0,0.541108 -0.18821,0.792057 -0.53326,0.792057 -0.34506,0 -0.53327,-0.250949 -0.53327,-0.788135 0,-0.541108 0.19213,-0.792057 0.53719,-0.792057 z"
           style="font-style:normal;font-variant:normal;font-weight:400;font-size:3.92107105px;font-family:'Fira Sans';fill:#000000;stroke-width:0.16337796"
           id="path4933" />
        <path
           d="m 149.80818,95.307899 c -0.27056,0 -0.49014,0.141158 -0.6313,0.352896 l -0.0314,-0.305843 h -0.30977 v 2.066404 h 0.36074 v -1.46648 c 0.13724,-0.21958 0.29408,-0.36466 0.52542,-0.36466 0.19998,0 0.32545,0.09019 0.32545,0.399949 v 1.431191 h 0.36074 v -1.482165 c 0,-0.392107 -0.21958,-0.631292 -0.59992,-0.631292 z"
           style="font-style:normal;font-variant:normal;font-weight:400;font-size:3.92107105px;font-family:'Fira Sans';fill:#000000;stroke-width:0.16337796"
           id="path4935" />
      </g>
      <g
         aria-label="conversio"
         style="font-style:normal;font-variant:normal;font-weight:400;font-size:3.92107105px;line-height:125%;font-family:'Fira Sans';text-align:start;letter-spacing:0px;word-spacing:0px;text-anchor:start;fill:#000000;fill-opacity:1;stroke:none;stroke-width:0.16337796"
         id="text4620">
        <path
           d="m 118.93789,100.01295 c -0.56072,0 -0.90185,0.43916 -0.90185,1.0979 0,0.66658 0.34505,1.06261 0.90185,1.06261 0.23918,0 0.447,-0.0784 0.63129,-0.22743 l -0.16469,-0.23526 c -0.15684,0.10195 -0.27839,0.15684 -0.45092,0.15684 -0.32545,0 -0.52934,-0.2235 -0.52934,-0.76461 0,-0.53718 0.20389,-0.79205 0.52934,-0.79205 0.17253,0 0.30192,0.051 0.44308,0.15292 l 0.17253,-0.22742 c -0.19213,-0.16077 -0.38819,-0.2235 -0.63129,-0.2235 z"
           style="font-style:normal;font-variant:normal;font-weight:400;font-size:3.92107105px;font-family:'Fira Sans';fill:#000000;stroke-width:0.16337796"
           id="path4938" />
        <path
           d="m 120.76112,100.01295 c -0.58816,0 -0.92537,0.44308 -0.92537,1.08221 0,0.65482 0.33329,1.0783 0.92145,1.0783 0.58424,0 0.92145,-0.44308 0.92145,-1.08222 0,-0.65482 -0.32937,-1.07829 -0.91753,-1.07829 z m 0,0.29016 c 0.34114,0 0.52935,0.25094 0.52935,0.78813 0,0.54111 -0.18821,0.79206 -0.53327,0.79206 -0.34505,0 -0.53326,-0.25095 -0.53326,-0.78814 0,-0.54111 0.19213,-0.79205 0.53718,-0.79205 z"
           style="font-style:normal;font-variant:normal;font-weight:400;font-size:3.92107105px;font-family:'Fira Sans';fill:#000000;stroke-width:0.16337796"
           id="path4940" />
        <path
           d="m 123.24702,100.01295 c -0.27055,0 -0.49013,0.14116 -0.63129,0.35289 l -0.0314,-0.30584 h -0.30977 v 2.0664 h 0.36074 v -1.46648 c 0.13724,-0.21958 0.29408,-0.36466 0.52543,-0.36466 0.19997,0 0.32545,0.0902 0.32545,0.39995 v 1.43119 h 0.36073 v -1.48216 c 0,-0.39211 -0.21958,-0.63129 -0.59992,-0.63129 z"
           style="font-style:normal;font-variant:normal;font-weight:400;font-size:3.92107105px;font-family:'Fira Sans';fill:#000000;stroke-width:0.16337796"
           id="path4942" />
        <path
           d="m 126.05892,100.06 h -0.38035 l -0.53718,1.74488 -0.54111,-1.74488 h -0.39211 l 0.71364,2.0664 h 0.43524 z"
           style="font-style:normal;font-variant:normal;font-weight:400;font-size:3.92107105px;font-family:'Fira Sans';fill:#000000;stroke-width:0.16337796"
           id="path4944" />
        <path
           d="m 128.01664,101.03242 c 0,-0.63129 -0.29408,-1.01947 -0.85088,-1.01947 -0.53326,0 -0.85871,0.45876 -0.85871,1.10182 0,0.65482 0.33721,1.05869 0.91361,1.05869 0.28624,0 0.51758,-0.098 0.72148,-0.25879 l -0.15685,-0.21566 c -0.18037,0.12547 -0.33329,0.18037 -0.53718,0.18037 -0.29801,0 -0.52151,-0.18429 -0.5568,-0.66266 h 1.31748 c 0.004,-0.0471 0.008,-0.11372 0.008,-0.1843 z m -0.35682,-0.0823 h -0.96851 c 0.0275,-0.45876 0.20782,-0.6509 0.4823,-0.6509 0.32544,0 0.48621,0.22351 0.48621,0.62738 z"
           style="font-style:normal;font-variant:normal;font-weight:400;font-size:3.92107105px;font-family:'Fira Sans';fill:#000000;stroke-width:0.16337796"
           id="path4946" />
        <path
           d="m 129.49065,100.01295 c -0.25095,0 -0.44308,0.15684 -0.55287,0.4666 l -0.0353,-0.41955 h -0.30976 v 2.0664 h 0.36074 v -1.18024 c 0.0863,-0.39603 0.23526,-0.58032 0.49405,-0.58032 0.0745,0 0.11763,0.008 0.18037,0.0235 l 0.0667,-0.3529 c -0.0627,-0.0157 -0.13724,-0.0235 -0.2039,-0.0235 z"
           style="font-style:normal;font-variant:normal;font-weight:400;font-size:3.92107105px;font-family:'Fira Sans';fill:#000000;stroke-width:0.16337796"
           id="path4948" />
        <path
           d="m 130.60853,100.01295 c -0.4274,0 -0.74501,0.23918 -0.74501,0.56855 0,0.29016 0.17645,0.48229 0.62345,0.59993 0.39995,0.10586 0.5019,0.18429 0.5019,0.38818 0,0.19606 -0.17253,0.31369 -0.44308,0.31369 -0.2235,0 -0.41564,-0.0745 -0.58032,-0.19998 l -0.19213,0.21958 c 0.18037,0.15685 0.43131,0.27056 0.78029,0.27056 0.41955,0 0.81558,-0.19606 0.81558,-0.62737 0,-0.36074 -0.25095,-0.53327 -0.68618,-0.64306 -0.3333,-0.0863 -0.44309,-0.16469 -0.44309,-0.33329 0,-0.16469 0.14508,-0.27056 0.38035,-0.27056 0.19213,0 0.35289,0.0588 0.53718,0.17645 l 0.15293,-0.22742 c -0.19606,-0.149 -0.41172,-0.23526 -0.70187,-0.23526 z"
           style="font-style:normal;font-variant:normal;font-weight:400;font-size:3.92107105px;font-family:'Fira Sans';fill:#000000;stroke-width:0.16337796"
           id="path4950" />
        <path
           d="m 132.0546,99.067968 c -0.149,0 -0.25095,0.105869 -0.25095,0.247028 0,0.137237 0.10195,0.243106 0.25095,0.243106 0.15293,0 0.25487,-0.105869 0.25487,-0.243106 0,-0.141159 -0.10194,-0.247028 -0.25487,-0.247028 z m 0.18429,0.992032 h -0.36073 v 2.0664 h 0.36073 z"
           style="font-style:normal;font-variant:normal;font-weight:400;font-size:3.92107105px;font-family:'Fira Sans';fill:#000000;stroke-width:0.16337796"
           id="path4952" />
        <path
           d="m 133.75733,100.01295 c -0.58816,0 -0.92537,0.44308 -0.92537,1.08221 0,0.65482 0.33329,1.0783 0.92145,1.0783 0.58424,0 0.92145,-0.44308 0.92145,-1.08222 0,-0.65482 -0.32937,-1.07829 -0.91753,-1.07829 z m 0,0.29016 c 0.34113,0 0.52934,0.25094 0.52934,0.78813 0,0.54111 -0.18821,0.79206 -0.53326,0.79206 -0.34506,0 -0.53327,-0.25095 -0.53327,-0.78814 0,-0.54111 0.19213,-0.79205 0.53719,-0.79205 z"
           style="font-style:normal;font-variant:normal;font-weight:400;font-size:3.92107105px;font-family:'Fira Sans';fill:#000000;stroke-width:0.16337796"
           id="path4954" />
      </g>
      <g
         aria-label="n"
         style="font-style:normal;font-variant:normal;font-weight:400;font-size:3.92107105px;line-height:125%;font-family:'Fira Sans';text-align:start;letter-spacing:0px;word-spacing:0px;text-anchor:start;fill:#000000;fill-opacity:1;stroke:none;stroke-width:0.16337796"
         id="text4626">
        <path
           d="m 136.46155,100.01295 c -0.27055,0 -0.49013,0.14116 -0.63129,0.35289 l -0.0314,-0.30584 h -0.30977 v 2.0664 h 0.36074 v -1.46648 c 0.13724,-0.21958 0.29408,-0.36466 0.52543,-0.36466 0.19997,0 0.32545,0.0902 0.32545,0.39995 v 1.43119 h 0.36073 v -1.48216 c 0,-0.39211 -0.21958,-0.63129 -0.59992,-0.63129 z"
           style="font-style:normal;font-variant:normal;font-weight:400;font-size:3.92107105px;font-family:'Fira Sans';fill:#000000;stroke-width:0.16337796"
           id="path4957" />
      </g>
    </g>
  </g>
</svg>
